<svg viewBox="0 0 512 512" xmlns="http://www.w3.org/2000/svg">
  <path d="M352 128c-25.6 0-51.2 9.6-70.4 25.6-19.2 16-28.8 39.4-28.8 64 0 12.8 3.2 25.6 9.6 35.2C274.4 277.6 288 321.6 288 368c0 35.2-22.4 64-48 64-44.8 0-83.2-32-96-70.4-25.6 19.2-51.2 28.8-70.4 28.8-35.2 0-70.4-25.6-70.4-57.6 0-25.6 9.6-51.2 25.6-70.4C44.8 339.2 0 294.4 0 237.6c0-41.6 25.6-86.4 64-115.2 22.4 32 48 73.6 89.6 73.6 25.6 0 48-9.6 70.4-28.8C358.4 64 384 104.4 384 155.2c0 32-12.8 57.6-32 76.8z" fill="#3b5998"/>
  <path d="M256 384c-19.2 0-41.6-6.4-57.6-16-12.8-9.6-25.6-22.4-35.2-38.4-6.4 6.4-16 12.8-25.6 19.2-12.8 9.6-25.6 6.4-35.2-6.4s-12.8-25.6-6.4-35.2l38.4-38.4c6.4-6.4 16-16 25.6-25.6 41.6-35.2 89.6-48 115.2-48 35.2 0 64 22.4 64 48 6.4 9.6 9.6 22.4 9.6 32zM284.8 166.4c-9.6-9.6-25.6-6.4-32 6.4-9.6 16-6.4 35.2 6.4 44.8l44.8 44.8 6.4 6.4 44.8-44.8c9.6-9.6 25.6-16 32-6.4 6.4 9.6 0 25.6-12.8 32l-51.2 38.4c-6.4 6.4-16 9.6-25.6 9.6s-16-3.2-25.6-9.6l-51.2-38.4z" fill="#fff"/>
</svg>